<?xml version="1.0" standalone="no"?>
<!DOCTYPE svg PUBLIC "-//W3C//DTD SVG 20010904//EN"
 "http://www.w3.org/TR/2001/REC-SVG-20010904/DTD/svg10.dtd">
<svg version="1.0" xmlns="http://www.w3.org/2000/svg"
 width="260.000000pt" height="260.000000pt" viewBox="0 0 260.000000 260.000000"
 preserveAspectRatio="xMidYMid meet">
<metadata>
Created by potrace 1.11, written by Peter Selinger 2001-2013
</metadata>
<g transform="translate(0.000000,260.000000) scale(0.100000,-0.100000)"
fill="#000000" stroke="none">
<path d="M1785 2286 c-74 -26 -197 -90 -251 -131 -31 -24 -32 -26 -34 -112 -3
-194 -12 -345 -24 -410 -2 -10 -7 -37 -10 -59 l-7 -41 -137 -66 c-151 -73
-360 -183 -435 -228 -26 -16 -64 -32 -85 -35 -20 -3 -44 -7 -52 -9 -8 -2 -28
-7 -45 -9 -16 -3 -74 -15 -129 -26 -136 -28 -128 -30 -121 34 l5 54 -32 -5
c-18 -2 -49 -8 -68 -12 -31 -7 -42 -3 -96 36 -34 24 -67 43 -73 43 -6 0 -51
-16 -100 -36 -70 -29 -88 -40 -83 -53 3 -9 34 -62 68 -118 76 -123 106 -181
100 -191 -2 -4 -7 -43 -10 -87 -4 -44 -8 -87 -11 -95 -2 -8 -6 -46 -9 -85 -3
-38 -8 -89 -12 -112 -7 -52 -7 -52 126 -18 96 24 119 40 121 79 0 12 2 29 4
39 3 16 17 184 19 229 1 23 16 12 16 -12 0 -10 4 -21 8 -24 5 -3 68 17 140 44
73 27 151 52 174 55 24 3 97 15 163 26 66 11 134 22 150 25 17 2 45 7 62 10
29 5 34 3 43 -21 8 -20 15 -25 28 -20 80 31 226 85 232 85 4 0 4 -19 0 -42 -5
-24 -11 -70 -14 -103 -7 -68 -16 -139 -22 -174 -2 -14 -6 -54 -10 -90 -3 -41
-25 -119 -56 -204 -28 -76 -48 -140 -47 -142 13 -12 264 93 354 149 78 47 66
24 126 246 27 97 25 85 44 250 11 101 27 195 34 200 3 3 43 48 89 101 52 61
101 107 133 125 28 16 65 38 84 49 106 63 151 88 197 106 28 11 78 33 111 50
33 16 60 28 61 27 7 -18 50 -97 61 -112 41 -54 44 55 6 202 -11 40 -15 74 -10
78 15 9 10 32 -8 38 -10 3 -29 32 -41 63 -28 69 -69 126 -84 117 -10 -7 -5
-125 7 -157 5 -11 -36 -26 -180 -67 -175 -50 -188 -52 -228 -40 -62 18 -152
14 -196 -9 -11 -6 -26 -11 -33 -11 -7 1 11 13 39 27 29 14 55 33 57 42 12 41
20 168 19 291 -2 296 1 270 -30 270 -16 0 -59 -11 -98 -24z m-5 -610 c0 -2 -7
-7 -16 -10 -8 -3 -12 -2 -9 4 6 10 25 14 25 6z"/>
</g>
</svg>
